<?xml version="1.0" standalone="no"?>
<!DOCTYPE svg PUBLIC "-//W3C//DTD SVG 20010904//EN"
 "http://www.w3.org/TR/2001/REC-SVG-20010904/DTD/svg10.dtd">
<svg version="1.0" xmlns="http://www.w3.org/2000/svg"
 width="40.000000pt" height="40.000000pt" viewBox="0 0 40.000000 40.000000"
 preserveAspectRatio="xMidYMid meet">
<metadata>
Created by potrace 1.16, written by Peter Selinger 2001-2019
</metadata>
<g transform="translate(0.000000,40.000000) scale(0.100000,-0.100000)"
fill="#000000" stroke="none">
<path d="M68 384 c21 -15 22 -21 22 -170 0 -156 -7 -194 -36 -194 -8 0 -13 -4
-10 -9 6 -10 152 -8 163 2 3 4 -3 7 -14 7 -35 0 -44 23 -42 109 l2 81 51 -1
c64 -1 85 -9 102 -40 12 -22 13 -18 13 46 0 57 -2 66 -11 50 -17 -31 -28 -35
-95 -35 l-63 0 0 80 0 80 73 0 c95 0 115 -7 133 -42 19 -37 25 -32 17 15 l-6
37 -161 0 c-148 0 -159 -1 -138 -16z"/>
</g>
</svg>
