<?xml version="1.0" standalone="no"?>
<!DOCTYPE svg PUBLIC "-//W3C//DTD SVG 20010904//EN"
 "http://www.w3.org/TR/2001/REC-SVG-20010904/DTD/svg10.dtd">
<svg version="1.0" xmlns="http://www.w3.org/2000/svg"
 width="125.000000pt" height="125.000000pt" viewBox="0 0 125.000000 125.000000"
 preserveAspectRatio="xMidYMid meet">
<metadata>
Created by potrace 1.16, written by Peter Selinger 2001-2019
</metadata>
<g transform="translate(0.000000,125.000000) scale(0.100000,-0.100000)"
fill="#000000" stroke="none">
<path d="M90 1240 c0 -5 13 -10 30 -10 48 0 109 -30 125 -61 23 -44 22 -1016
-1 -1060 -17 -35 -67 -59 -119 -59 -28 0 -35 -4 -35 -20 0 -20 7 -20 280 -20
267 0 280 1 280 19 0 15 -10 19 -51 23 -61 6 -100 33 -116 79 -8 22 -12 113
-12 267 l-1 232 194 0 c184 0 195 -1 227 -23 42 -28 59 -60 59 -115 0 -39 2
-43 23 -40 22 3 22 3 25 221 l2 217 -25 0 c-23 0 -25 -4 -25 -40 0 -23 -7 -55
-16 -71 -26 -52 -61 -59 -274 -59 l-190 0 0 240 0 240 233 0 c255 0 309 -8
359 -55 32 -30 59 -77 68 -120 4 -22 12 -31 29 -33 l24 -4 -6 93 c-4 50 -7
109 -7 131 l0 38 -540 0 c-353 0 -540 -3 -540 -10z"/>
<path d="M564 1146 c-26 -26 -34 -42 -34 -70 0 -59 24 -91 105 -141 76 -48
115 -86 115 -112 0 -23 -47 -63 -75 -63 -45 0 -85 28 -106 76 -11 24 -24 44
-29 44 -6 0 -10 -34 -10 -75 0 -75 9 -92 36 -65 8 8 19 8 38 0 41 -15 124 -12
156 6 64 38 79 120 33 175 -15 18 -65 57 -111 86 -78 51 -83 56 -80 86 4 39
41 63 82 53 35 -9 76 -52 83 -88 11 -53 23 -28 23 47 0 73 -5 86 -26 65 -8 -8
-19 -8 -38 0 -15 5 -50 10 -78 10 -44 0 -54 -4 -84 -34z"/>
<path d="M564 536 c-26 -26 -34 -42 -34 -70 0 -59 24 -91 105 -141 76 -48 115
-86 115 -112 0 -23 -47 -63 -75 -63 -45 0 -85 28 -106 76 -11 24 -24 44 -29
44 -6 0 -10 -34 -10 -75 0 -75 9 -92 36 -65 8 8 19 8 38 0 41 -15 124 -12 156
6 64 38 79 120 33 175 -15 18 -65 57 -111 86 -78 51 -83 56 -80 86 4 39 41 63
82 53 35 -9 76 -52 83 -88 11 -53 23 -28 23 47 0 73 -5 86 -26 65 -8 -8 -19
-8 -38 0 -15 5 -50 10 -78 10 -44 0 -54 -4 -84 -34z"/>
</g>
</svg>
